<?xml version="1.0" encoding="UTF-8"?>
<!DOCTYPE svg  PUBLIC '-//W3C//DTD SVG 1.1//EN'  'http://www.w3.org/Graphics/SVG/1.1/DTD/svg11.dtd'>
<svg enable-background="new 0 0 595.28 841.89" version="1.1" viewBox="0 0 595.28 841.89" xml:space="preserve" xmlns="http://www.w3.org/2000/svg">
<circle cx="297.26" cy="420.94" r="150" fill="#EE8359"/>
<path d="m297.82 270.95v299.99c82.587-0.3 149.44-67.335 149.44-149.99 0-82.657-66.858-149.69-149.44-149.99z" fill="#F68C59"/>
<path d="m370.73 392.3l-51.341-51.34c-3.928-3.927-10.296-3.927-14.224 0l-98.012 98.013c-3.929 3.93-3.929 10.297 0 14.225l51.339 51.34c3.928 3.928 10.296 3.928 14.224 0l98.013-98.013c3.929-3.929 3.929-10.296 1e-3 -14.225zm-35.32 13.577c-8.174 8.173-21.424 8.173-29.597 0s-8.173-21.423 0-29.597c8.173-8.173 21.423-8.173 29.597 0 8.173 8.173 8.173 21.424 0 29.597z" fill="#39B54A"/>
<path d="m232.76 478.8l72.994-72.994c-8.11-8.178-8.092-21.379 0.06-29.531s21.353-8.169 29.531-0.06l9.651-9.653-25.607-25.607c-3.928-3.927-10.296-3.927-14.224 0l-98.012 98.013c-3.929 3.93-3.929 10.297 0 14.225l25.607 25.607z" fill="#00A651"/>
<circle cx="320.61" cy="391.08" r="20.928" fill="none" stroke="#009444" stroke-miterlimit="10" stroke-width="5"/>
<path d="m379.19 295.29l-53.829 89.203c-0.856 1.418-0.4 3.262 1.019 4.118 0.484 0.293 1.02 0.432 1.547 0.432 1.017 0 2.008-0.517 2.571-1.451l53.659-88.921c-1.63-1.16-3.288-2.284-4.967-3.381z" fill="#FFFAC2"/>
<text transform="matrix(.7071 .7071 -.7071 .7071 241.53 442.44)" fill="#FFFFFF" font-family="'MyriadPro-Regular'" font-size="74.671">$</text>
</svg>
