<?xml version="1.0" encoding="UTF-8" standalone="no"?>
<!-- Created with Inkscape (http://www.inkscape.org/) -->

<svg
   xmlns:dc="http://purl.org/dc/elements/1.1/"
   xmlns:cc="http://creativecommons.org/ns#"
   xmlns:rdf="http://www.w3.org/1999/02/22-rdf-syntax-ns#"
   xmlns:svg="http://www.w3.org/2000/svg"
   xmlns="http://www.w3.org/2000/svg"
   xmlns:sodipodi="http://sodipodi.sourceforge.net/DTD/sodipodi-0.dtd"
   xmlns:inkscape="http://www.inkscape.org/namespaces/inkscape"
   width="84.666664mm"
   height="84.666672mm"
   viewBox="0 0 299.99999 300.00002"
   id="svg3388"
   version="1.1"
   inkscape:version="0.91 r13725"
   sodipodi:docname="coupon.svg">
  <defs
     id="defs3390" />
  <sodipodi:namedview
     id="base"
     pagecolor="#ffffff"
     bordercolor="#666666"
     borderopacity="1.0"
     inkscape:pageopacity="0.0"
     inkscape:pageshadow="2"
     inkscape:zoom="0.35"
     inkscape:cx="136.42858"
     inkscape:cy="130.00001"
     inkscape:document-units="px"
     inkscape:current-layer="layer1"
     showgrid="false"
     fit-margin-top="0"
     fit-margin-left="0"
     fit-margin-right="0"
     fit-margin-bottom="0"
     inkscape:window-width="1366"
     inkscape:window-height="705"
     inkscape:window-x="-8"
     inkscape:window-y="-8"
     inkscape:window-maximized="1" />
  <metadata
     id="metadata3393">
    <rdf:RDF>
      <cc:Work
         rdf:about="">
        <dc:format>image/svg+xml</dc:format>
        <dc:type
           rdf:resource="http://purl.org/dc/dcmitype/StillImage" />
        <dc:title></dc:title>
      </cc:Work>
    </rdf:RDF>
  </metadata>
  <g
     inkscape:label="Capa 1"
     inkscape:groupmode="layer"
     id="layer1"
     transform="translate(-238.57142,-362.36218)">
    <g
       id="g3414"
       transform="translate(37.142857,1.1428572e-6)">
      <circle
         id="circle4"
         r="150"
         cy="512.36218"
         cx="351.42856"
         style="fill:#ee8359" />
      <path
         id="path6"
         d="m 351.98856,362.37221 0,299.99 c 82.587,-0.3 149.44,-67.335 149.44,-149.99 0,-82.657 -66.858,-149.69 -149.44,-149.99 z"
         style="fill:#f68c59"
         inkscape:connector-curvature="0" />
      <path
         id="path8"
         d="m 424.89856,483.72221 -51.341,-51.34 c -3.928,-3.927 -10.296,-3.927 -14.224,0 l -98.012,98.013 c -3.929,3.93 -3.929,10.297 0,14.225 l 51.339,51.34 c 3.928,3.928 10.296,3.928 14.224,0 l 98.013,-98.013 c 3.929,-3.929 3.929,-10.296 10e-4,-14.225 z m -35.32,13.577 c -8.174,8.173 -21.424,8.173 -29.597,0 -8.173,-8.173 -8.173,-21.423 0,-29.597 8.173,-8.173 21.423,-8.173 29.597,0 8.173,8.173 8.173,21.424 0,29.597 z"
         style="fill:#39b54a"
         inkscape:connector-curvature="0" />
      <path
         id="path10"
         d="m 286.92856,570.22221 72.994,-72.994 c -8.11,-8.178 -8.092,-21.379 0.06,-29.531 8.152,-8.152 21.353,-8.169 29.531,-0.06 l 9.651,-9.653 -25.607,-25.607 c -3.928,-3.927 -10.296,-3.927 -14.224,0 l -98.012,98.013 c -3.929,3.93 -3.929,10.297 0,14.225 l 25.607,25.607 z"
         style="fill:#00a651"
         inkscape:connector-curvature="0" />
      <circle
         id="circle12"
         stroke-miterlimit="10"
         r="20.927999"
         cy="482.5022"
         cx="374.77853"
         style="fill:none;stroke:#009444;stroke-width:5;stroke-miterlimit:10" />
      <path
         id="path14"
         d="m 433.35856,386.71221 -53.829,89.203 c -0.856,1.418 -0.4,3.262 1.019,4.118 0.484,0.293 1.02,0.432 1.547,0.432 1.017,0 2.008,-0.517 2.571,-1.451 l 53.659,-88.921 c -1.63,-1.16 -3.288,-2.284 -4.967,-3.381 z"
         style="fill:#fffac2"
         inkscape:connector-curvature="0" />
      <text
         id="text16"
         font-size="74.671"
         transform="matrix(0.70710678,0.70710678,-0.70710678,0.70710678,0,0)"
         style="font-size:74.67099762px;font-family:MyriadPro-Regular;fill:#ffffff"
         x="586.58807"
         y="168.40714">$</text>
    </g>
  </g>
</svg>
